<svg width="347" height="128" viewBox="0 0 347 128" fill="none" xmlns="http://www.w3.org/2000/svg">
<mask id="path-1-outside-1_30_77" maskUnits="userSpaceOnUse" x="0" y="0" width="347" height="128" fill="black">
<rect fill="white" width="347" height="128"/>
<path d="M8.34 93.16V1.64H85.012C94.484 1.64 101.823 4.02933 107.028 8.808C112.319 13.5867 114.964 20.84 114.964 30.568C114.964 38.8453 113.044 45.3307 109.204 50.024C105.364 54.7173 99.9027 57.6613 92.82 58.856L113.94 93.16H90.644L71.06 59.496H28.82V93.16H8.34ZM82.58 18.28H28.82V42.728L82.58 42.856C86.3347 42.856 89.1933 41.9173 91.156 40.04C93.204 38.1627 94.228 35.0053 94.228 30.568C94.228 26.0453 93.204 22.888 91.156 21.096C89.1933 19.2187 86.3347 18.28 82.58 18.28Z"/>
<path d="M127.396 93.8V77.16L200.996 77.288C204.751 77.288 207.609 76.4347 209.572 74.728C211.62 72.936 212.644 70.0773 212.644 66.152C212.644 62.2267 211.62 59.4107 209.572 57.704C207.609 55.912 204.751 55.016 200.996 55.016H155.172C145.7 55.016 138.319 52.7547 133.028 48.232C127.823 43.624 125.22 36.8827 125.22 28.008C125.22 19.1333 127.823 12.4347 133.028 7.912C138.319 3.304 145.7 1 155.172 1H227.108V17.64L157.348 17.512C153.679 17.512 150.82 18.3653 148.772 20.072C146.724 21.6933 145.7 24.3387 145.7 28.008C145.7 31.6773 146.724 34.3653 148.772 36.072C150.82 37.6933 153.679 38.504 157.348 38.504H203.172C212.644 38.504 219.983 40.8507 225.188 45.544C230.479 50.152 233.124 57.0213 233.124 66.152C233.124 75.1973 230.479 82.0667 225.188 86.76C219.983 91.4533 212.644 93.8 203.172 93.8H127.396Z"/>
<path d="M240.845 93.16V66.024C240.845 57.4907 243.234 50.8773 248.013 46.184C252.792 41.4907 259.746 39.144 268.877 39.144H310.989C319.096 39.144 323.149 35.688 323.149 28.776C323.149 21.864 319.096 18.408 310.989 18.408H242.893V1.768H314.957C323.832 1.768 330.701 4.15733 335.565 8.936C340.514 13.7147 342.989 20.328 342.989 28.776C342.989 37.224 340.514 43.8373 335.565 48.616C330.701 53.3947 323.832 55.784 314.957 55.784H271.693C268.024 55.784 265.25 56.7227 263.373 58.6C261.581 60.392 260.685 62.952 260.685 66.28V76.648H340.557V93.16H240.845Z"/>
<path d="M1 113.452V100.42H32.68V113.452H26.848V105.1H19V126.16H13.24V105.1H6.832V113.452H1Z"/>
<path d="M36.8102 126.16V100.42H65.0342V105.1H42.5702V110.788H62.9462V115.468H42.5702V121.48H65.0342V126.16H36.8102Z"/>
<path d="M68.9781 126.16V100.492H74.7381V110.968H83.3061L91.7661 100.492H98.9301L88.3461 113.308L98.9301 126.16H91.7661L83.2701 115.648H74.7381V126.16H68.9781Z"/>
<path d="M101.814 126.16V100.42H107.646L125.862 118.924V100.42H131.622V126.16H125.79L107.574 107.62V126.16H101.814Z"/>
<path d="M149.65 126.34C145.066 126.34 141.514 125.248 138.994 123.064C136.474 120.856 135.214 117.592 135.214 113.272C135.214 108.976 136.474 105.736 138.994 103.552C141.514 101.344 145.15 100.24 149.902 100.24H156.382C161.134 100.24 164.77 101.344 167.29 103.552C169.81 105.736 171.07 108.976 171.07 113.272C171.07 117.592 169.81 120.856 167.29 123.064C164.77 125.248 161.194 126.34 156.562 126.34H149.65ZM150.298 104.92C147.634 104.92 145.558 105.4 144.07 106.36C142.582 107.32 141.646 108.844 141.262 110.932H165.022C164.638 108.844 163.702 107.32 162.214 106.36C160.726 105.4 158.65 104.92 155.986 104.92H150.298ZM150.406 121.66H155.986C158.674 121.66 160.75 121.18 162.214 120.22C163.702 119.26 164.638 117.724 165.022 115.612H141.262C141.646 117.724 142.582 119.26 144.07 120.22C145.558 121.18 147.67 121.66 150.406 121.66Z"/>
<path d="M174.658 126.16V100.42H180.418V121.48H199.246V126.16H174.658Z"/>
<path d="M214.759 126.34C210.175 126.34 206.623 125.248 204.103 123.064C201.583 120.856 200.323 117.592 200.323 113.272C200.323 108.976 201.583 105.736 204.103 103.552C206.623 101.344 210.259 100.24 215.011 100.24H221.491C226.243 100.24 229.879 101.344 232.399 103.552C234.919 105.736 236.179 108.976 236.179 113.272C236.179 117.592 234.919 120.856 232.399 123.064C229.879 125.248 226.303 126.34 221.671 126.34H214.759ZM215.407 104.92C212.743 104.92 210.667 105.4 209.179 106.36C207.691 107.32 206.755 108.844 206.371 110.932H230.131C229.747 108.844 228.811 107.32 227.323 106.36C225.835 105.4 223.759 104.92 221.095 104.92H215.407ZM215.515 121.66H221.095C223.783 121.66 225.859 121.18 227.323 120.22C228.811 119.26 229.747 117.724 230.131 115.612H206.371C206.755 117.724 207.691 119.26 209.179 120.22C210.667 121.18 212.779 121.66 215.515 121.66Z"/>
<path d="M252.998 126.34C248.606 126.34 245.174 125.248 242.702 123.064C240.254 120.856 239.03 117.592 239.03 113.272C239.03 108.976 240.278 105.736 242.774 103.552C245.294 101.344 248.942 100.24 253.718 100.24H267.398V104.92H254.114C250.97 104.92 248.642 105.58 247.13 106.9C245.642 108.22 244.898 110.344 244.898 113.272C244.898 116.056 245.558 118.12 246.878 119.464C248.198 120.784 250.13 121.504 252.674 121.624V111.616H268.802V126.34H252.998ZM258.074 121.66H263.042V116.296H258.074V121.66Z"/>
<path d="M273.834 126.16V100.42H279.594V126.16H273.834Z"/>
<path d="M284.627 126.16V100.42H312.851V105.1H290.387V110.788H310.763V115.468H290.387V121.48H312.851V126.16H284.627Z"/>
<path d="M315.967 126.34V121.66L336.667 121.696C337.723 121.696 338.527 121.456 339.079 120.976C339.655 120.472 339.943 119.668 339.943 118.564C339.943 117.46 339.655 116.668 339.079 116.188C338.527 115.684 337.723 115.432 336.667 115.432H323.779C321.115 115.432 319.039 114.796 317.551 113.524C316.087 112.228 315.355 110.332 315.355 107.836C315.355 105.34 316.087 103.456 317.551 102.184C319.039 100.888 321.115 100.24 323.779 100.24H344.011V104.92L324.391 104.884C323.359 104.884 322.555 105.124 321.979 105.604C321.403 106.06 321.115 106.804 321.115 107.836C321.115 108.868 321.403 109.624 321.979 110.104C322.555 110.56 323.359 110.788 324.391 110.788H337.279C339.943 110.788 342.007 111.448 343.471 112.768C344.959 114.064 345.703 115.996 345.703 118.564C345.703 121.108 344.959 123.04 343.471 124.36C342.007 125.68 339.943 126.34 337.279 126.34H315.967Z"/>
</mask>
<path d="M8.34 93.16V1.64H85.012C94.484 1.64 101.823 4.02933 107.028 8.808C112.319 13.5867 114.964 20.84 114.964 30.568C114.964 38.8453 113.044 45.3307 109.204 50.024C105.364 54.7173 99.9027 57.6613 92.82 58.856L113.94 93.16H90.644L71.06 59.496H28.82V93.16H8.34ZM82.58 18.28H28.82V42.728L82.58 42.856C86.3347 42.856 89.1933 41.9173 91.156 40.04C93.204 38.1627 94.228 35.0053 94.228 30.568C94.228 26.0453 93.204 22.888 91.156 21.096C89.1933 19.2187 86.3347 18.28 82.58 18.28Z" fill="white"/>
<path d="M127.396 93.8V77.16L200.996 77.288C204.751 77.288 207.609 76.4347 209.572 74.728C211.62 72.936 212.644 70.0773 212.644 66.152C212.644 62.2267 211.62 59.4107 209.572 57.704C207.609 55.912 204.751 55.016 200.996 55.016H155.172C145.7 55.016 138.319 52.7547 133.028 48.232C127.823 43.624 125.22 36.8827 125.22 28.008C125.22 19.1333 127.823 12.4347 133.028 7.912C138.319 3.304 145.7 1 155.172 1H227.108V17.64L157.348 17.512C153.679 17.512 150.82 18.3653 148.772 20.072C146.724 21.6933 145.7 24.3387 145.7 28.008C145.7 31.6773 146.724 34.3653 148.772 36.072C150.82 37.6933 153.679 38.504 157.348 38.504H203.172C212.644 38.504 219.983 40.8507 225.188 45.544C230.479 50.152 233.124 57.0213 233.124 66.152C233.124 75.1973 230.479 82.0667 225.188 86.76C219.983 91.4533 212.644 93.8 203.172 93.8H127.396Z" fill="white"/>
<path d="M240.845 93.16V66.024C240.845 57.4907 243.234 50.8773 248.013 46.184C252.792 41.4907 259.746 39.144 268.877 39.144H310.989C319.096 39.144 323.149 35.688 323.149 28.776C323.149 21.864 319.096 18.408 310.989 18.408H242.893V1.768H314.957C323.832 1.768 330.701 4.15733 335.565 8.936C340.514 13.7147 342.989 20.328 342.989 28.776C342.989 37.224 340.514 43.8373 335.565 48.616C330.701 53.3947 323.832 55.784 314.957 55.784H271.693C268.024 55.784 265.25 56.7227 263.373 58.6C261.581 60.392 260.685 62.952 260.685 66.28V76.648H340.557V93.16H240.845Z" fill="white"/>
<path d="M1 113.452V100.42H32.68V113.452H26.848V105.1H19V126.16H13.24V105.1H6.832V113.452H1Z" fill="white"/>
<path d="M36.8102 126.16V100.42H65.0342V105.1H42.5702V110.788H62.9462V115.468H42.5702V121.48H65.0342V126.16H36.8102Z" fill="white"/>
<path d="M68.9781 126.16V100.492H74.7381V110.968H83.3061L91.7661 100.492H98.9301L88.3461 113.308L98.9301 126.16H91.7661L83.2701 115.648H74.7381V126.16H68.9781Z" fill="white"/>
<path d="M101.814 126.16V100.42H107.646L125.862 118.924V100.42H131.622V126.16H125.79L107.574 107.62V126.16H101.814Z" fill="white"/>
<path d="M149.65 126.34C145.066 126.34 141.514 125.248 138.994 123.064C136.474 120.856 135.214 117.592 135.214 113.272C135.214 108.976 136.474 105.736 138.994 103.552C141.514 101.344 145.15 100.24 149.902 100.24H156.382C161.134 100.24 164.77 101.344 167.29 103.552C169.81 105.736 171.07 108.976 171.07 113.272C171.07 117.592 169.81 120.856 167.29 123.064C164.77 125.248 161.194 126.34 156.562 126.34H149.65ZM150.298 104.92C147.634 104.92 145.558 105.4 144.07 106.36C142.582 107.32 141.646 108.844 141.262 110.932H165.022C164.638 108.844 163.702 107.32 162.214 106.36C160.726 105.4 158.65 104.92 155.986 104.92H150.298ZM150.406 121.66H155.986C158.674 121.66 160.75 121.18 162.214 120.22C163.702 119.26 164.638 117.724 165.022 115.612H141.262C141.646 117.724 142.582 119.26 144.07 120.22C145.558 121.18 147.67 121.66 150.406 121.66Z" fill="white"/>
<path d="M174.658 126.16V100.42H180.418V121.48H199.246V126.16H174.658Z" fill="white"/>
<path d="M214.759 126.34C210.175 126.34 206.623 125.248 204.103 123.064C201.583 120.856 200.323 117.592 200.323 113.272C200.323 108.976 201.583 105.736 204.103 103.552C206.623 101.344 210.259 100.24 215.011 100.24H221.491C226.243 100.24 229.879 101.344 232.399 103.552C234.919 105.736 236.179 108.976 236.179 113.272C236.179 117.592 234.919 120.856 232.399 123.064C229.879 125.248 226.303 126.34 221.671 126.34H214.759ZM215.407 104.92C212.743 104.92 210.667 105.4 209.179 106.36C207.691 107.32 206.755 108.844 206.371 110.932H230.131C229.747 108.844 228.811 107.32 227.323 106.36C225.835 105.4 223.759 104.92 221.095 104.92H215.407ZM215.515 121.66H221.095C223.783 121.66 225.859 121.18 227.323 120.22C228.811 119.26 229.747 117.724 230.131 115.612H206.371C206.755 117.724 207.691 119.26 209.179 120.22C210.667 121.18 212.779 121.66 215.515 121.66Z" fill="white"/>
<path d="M252.998 126.34C248.606 126.34 245.174 125.248 242.702 123.064C240.254 120.856 239.03 117.592 239.03 113.272C239.03 108.976 240.278 105.736 242.774 103.552C245.294 101.344 248.942 100.24 253.718 100.24H267.398V104.92H254.114C250.97 104.92 248.642 105.58 247.13 106.9C245.642 108.22 244.898 110.344 244.898 113.272C244.898 116.056 245.558 118.12 246.878 119.464C248.198 120.784 250.13 121.504 252.674 121.624V111.616H268.802V126.34H252.998ZM258.074 121.66H263.042V116.296H258.074V121.66Z" fill="white"/>
<path d="M273.834 126.16V100.42H279.594V126.16H273.834Z" fill="white"/>
<path d="M284.627 126.16V100.42H312.851V105.1H290.387V110.788H310.763V115.468H290.387V121.48H312.851V126.16H284.627Z" fill="white"/>
<path d="M315.967 126.34V121.66L336.667 121.696C337.723 121.696 338.527 121.456 339.079 120.976C339.655 120.472 339.943 119.668 339.943 118.564C339.943 117.46 339.655 116.668 339.079 116.188C338.527 115.684 337.723 115.432 336.667 115.432H323.779C321.115 115.432 319.039 114.796 317.551 113.524C316.087 112.228 315.355 110.332 315.355 107.836C315.355 105.34 316.087 103.456 317.551 102.184C319.039 100.888 321.115 100.24 323.779 100.24H344.011V104.92L324.391 104.884C323.359 104.884 322.555 105.124 321.979 105.604C321.403 106.06 321.115 106.804 321.115 107.836C321.115 108.868 321.403 109.624 321.979 110.104C322.555 110.56 323.359 110.788 324.391 110.788H337.279C339.943 110.788 342.007 111.448 343.471 112.768C344.959 114.064 345.703 115.996 345.703 118.564C345.703 121.108 344.959 123.04 343.471 124.36C342.007 125.68 339.943 126.34 337.279 126.34H315.967Z" fill="white"/>
<path d="M8.34 93.16V1.64H85.012C94.484 1.64 101.823 4.02933 107.028 8.808C112.319 13.5867 114.964 20.84 114.964 30.568C114.964 38.8453 113.044 45.3307 109.204 50.024C105.364 54.7173 99.9027 57.6613 92.82 58.856L113.94 93.16H90.644L71.06 59.496H28.82V93.16H8.34ZM82.58 18.28H28.82V42.728L82.58 42.856C86.3347 42.856 89.1933 41.9173 91.156 40.04C93.204 38.1627 94.228 35.0053 94.228 30.568C94.228 26.0453 93.204 22.888 91.156 21.096C89.1933 19.2187 86.3347 18.28 82.58 18.28Z" stroke="black" stroke-width="2" mask="url(#path-1-outside-1_30_77)"/>
<path d="M127.396 93.8V77.16L200.996 77.288C204.751 77.288 207.609 76.4347 209.572 74.728C211.62 72.936 212.644 70.0773 212.644 66.152C212.644 62.2267 211.62 59.4107 209.572 57.704C207.609 55.912 204.751 55.016 200.996 55.016H155.172C145.7 55.016 138.319 52.7547 133.028 48.232C127.823 43.624 125.22 36.8827 125.22 28.008C125.22 19.1333 127.823 12.4347 133.028 7.912C138.319 3.304 145.7 1 155.172 1H227.108V17.64L157.348 17.512C153.679 17.512 150.82 18.3653 148.772 20.072C146.724 21.6933 145.7 24.3387 145.7 28.008C145.7 31.6773 146.724 34.3653 148.772 36.072C150.82 37.6933 153.679 38.504 157.348 38.504H203.172C212.644 38.504 219.983 40.8507 225.188 45.544C230.479 50.152 233.124 57.0213 233.124 66.152C233.124 75.1973 230.479 82.0667 225.188 86.76C219.983 91.4533 212.644 93.8 203.172 93.8H127.396Z" stroke="black" stroke-width="2" mask="url(#path-1-outside-1_30_77)"/>
<path d="M240.845 93.16V66.024C240.845 57.4907 243.234 50.8773 248.013 46.184C252.792 41.4907 259.746 39.144 268.877 39.144H310.989C319.096 39.144 323.149 35.688 323.149 28.776C323.149 21.864 319.096 18.408 310.989 18.408H242.893V1.768H314.957C323.832 1.768 330.701 4.15733 335.565 8.936C340.514 13.7147 342.989 20.328 342.989 28.776C342.989 37.224 340.514 43.8373 335.565 48.616C330.701 53.3947 323.832 55.784 314.957 55.784H271.693C268.024 55.784 265.25 56.7227 263.373 58.6C261.581 60.392 260.685 62.952 260.685 66.28V76.648H340.557V93.16H240.845Z" stroke="black" stroke-width="2" mask="url(#path-1-outside-1_30_77)"/>
<path d="M1 113.452V100.42H32.68V113.452H26.848V105.1H19V126.16H13.24V105.1H6.832V113.452H1Z" stroke="black" stroke-width="2" mask="url(#path-1-outside-1_30_77)"/>
<path d="M36.8102 126.16V100.42H65.0342V105.1H42.5702V110.788H62.9462V115.468H42.5702V121.48H65.0342V126.16H36.8102Z" stroke="black" stroke-width="2" mask="url(#path-1-outside-1_30_77)"/>
<path d="M68.9781 126.16V100.492H74.7381V110.968H83.3061L91.7661 100.492H98.9301L88.3461 113.308L98.9301 126.16H91.7661L83.2701 115.648H74.7381V126.16H68.9781Z" stroke="black" stroke-width="2" mask="url(#path-1-outside-1_30_77)"/>
<path d="M101.814 126.16V100.42H107.646L125.862 118.924V100.42H131.622V126.16H125.79L107.574 107.62V126.16H101.814Z" stroke="black" stroke-width="2" mask="url(#path-1-outside-1_30_77)"/>
<path d="M149.65 126.34C145.066 126.34 141.514 125.248 138.994 123.064C136.474 120.856 135.214 117.592 135.214 113.272C135.214 108.976 136.474 105.736 138.994 103.552C141.514 101.344 145.15 100.24 149.902 100.24H156.382C161.134 100.24 164.77 101.344 167.29 103.552C169.81 105.736 171.07 108.976 171.07 113.272C171.07 117.592 169.81 120.856 167.29 123.064C164.77 125.248 161.194 126.34 156.562 126.34H149.65ZM150.298 104.92C147.634 104.92 145.558 105.4 144.07 106.36C142.582 107.32 141.646 108.844 141.262 110.932H165.022C164.638 108.844 163.702 107.32 162.214 106.36C160.726 105.4 158.65 104.92 155.986 104.92H150.298ZM150.406 121.66H155.986C158.674 121.66 160.75 121.18 162.214 120.22C163.702 119.26 164.638 117.724 165.022 115.612H141.262C141.646 117.724 142.582 119.26 144.07 120.22C145.558 121.18 147.67 121.66 150.406 121.66Z" stroke="black" stroke-width="2" mask="url(#path-1-outside-1_30_77)"/>
<path d="M174.658 126.16V100.42H180.418V121.48H199.246V126.16H174.658Z" stroke="black" stroke-width="2" mask="url(#path-1-outside-1_30_77)"/>
<path d="M214.759 126.34C210.175 126.34 206.623 125.248 204.103 123.064C201.583 120.856 200.323 117.592 200.323 113.272C200.323 108.976 201.583 105.736 204.103 103.552C206.623 101.344 210.259 100.24 215.011 100.24H221.491C226.243 100.24 229.879 101.344 232.399 103.552C234.919 105.736 236.179 108.976 236.179 113.272C236.179 117.592 234.919 120.856 232.399 123.064C229.879 125.248 226.303 126.34 221.671 126.34H214.759ZM215.407 104.92C212.743 104.92 210.667 105.4 209.179 106.36C207.691 107.32 206.755 108.844 206.371 110.932H230.131C229.747 108.844 228.811 107.32 227.323 106.36C225.835 105.4 223.759 104.92 221.095 104.92H215.407ZM215.515 121.66H221.095C223.783 121.66 225.859 121.18 227.323 120.22C228.811 119.26 229.747 117.724 230.131 115.612H206.371C206.755 117.724 207.691 119.26 209.179 120.22C210.667 121.18 212.779 121.66 215.515 121.66Z" stroke="black" stroke-width="2" mask="url(#path-1-outside-1_30_77)"/>
<path d="M252.998 126.34C248.606 126.34 245.174 125.248 242.702 123.064C240.254 120.856 239.03 117.592 239.03 113.272C239.03 108.976 240.278 105.736 242.774 103.552C245.294 101.344 248.942 100.24 253.718 100.24H267.398V104.92H254.114C250.97 104.92 248.642 105.58 247.13 106.9C245.642 108.22 244.898 110.344 244.898 113.272C244.898 116.056 245.558 118.12 246.878 119.464C248.198 120.784 250.13 121.504 252.674 121.624V111.616H268.802V126.34H252.998ZM258.074 121.66H263.042V116.296H258.074V121.66Z" stroke="black" stroke-width="2" mask="url(#path-1-outside-1_30_77)"/>
<path d="M273.834 126.16V100.42H279.594V126.16H273.834Z" stroke="black" stroke-width="2" mask="url(#path-1-outside-1_30_77)"/>
<path d="M284.627 126.16V100.42H312.851V105.1H290.387V110.788H310.763V115.468H290.387V121.48H312.851V126.16H284.627Z" stroke="black" stroke-width="2" mask="url(#path-1-outside-1_30_77)"/>
<path d="M315.967 126.34V121.66L336.667 121.696C337.723 121.696 338.527 121.456 339.079 120.976C339.655 120.472 339.943 119.668 339.943 118.564C339.943 117.46 339.655 116.668 339.079 116.188C338.527 115.684 337.723 115.432 336.667 115.432H323.779C321.115 115.432 319.039 114.796 317.551 113.524C316.087 112.228 315.355 110.332 315.355 107.836C315.355 105.34 316.087 103.456 317.551 102.184C319.039 100.888 321.115 100.24 323.779 100.24H344.011V104.92L324.391 104.884C323.359 104.884 322.555 105.124 321.979 105.604C321.403 106.06 321.115 106.804 321.115 107.836C321.115 108.868 321.403 109.624 321.979 110.104C322.555 110.56 323.359 110.788 324.391 110.788H337.279C339.943 110.788 342.007 111.448 343.471 112.768C344.959 114.064 345.703 115.996 345.703 118.564C345.703 121.108 344.959 123.04 343.471 124.36C342.007 125.68 339.943 126.34 337.279 126.34H315.967Z" stroke="black" stroke-width="2" mask="url(#path-1-outside-1_30_77)"/>
</svg>
