<svg width="369" height="143" viewBox="0 0 369 143" fill="none" xmlns="http://www.w3.org/2000/svg">
<mask id="path-1-outside-1_34_87" maskUnits="userSpaceOnUse" x="0" y="0" width="369" height="143" fill="black">
<rect fill="white" width="369" height="143"/>
<path d="M1 3H65.25C74.625 3 82.1667 3.41667 87.875 4.25C93.625 5.08333 97.9792 6.52083 100.938 8.5625C103.896 10.6042 105.896 13.3958 106.938 16.9375C107.979 20.4792 108.5 24.9583 108.5 30.375V32.875C108.5 37.875 107.896 42.1875 106.688 45.8125C105.521 49.3958 103.25 52.3125 99.875 54.5625C96.5 56.7708 91.5 58.3333 84.875 59.25L105.75 99H93.75L73.3125 60.125C72.4792 60.1667 71.6042 60.1875 70.6875 60.1875C69.8125 60.1875 68.8958 60.1875 67.9375 60.1875H13V99H1V3ZM13 49.8125H66.0625C73.1875 49.8125 78.7917 49.5833 82.875 49.125C87 48.625 90.0208 47.7708 91.9375 46.5625C93.8958 45.3542 95.1458 43.6458 95.6875 41.4375C96.2292 39.2292 96.5 36.375 96.5 32.875V30.375C96.5 26.4167 96.125 23.2917 95.375 21C94.625 18.7083 93.125 17.0208 90.875 15.9375C88.625 14.8542 85.2708 14.1667 80.8125 13.875C76.3542 13.5417 70.3958 13.375 62.9375 13.375H13V49.8125Z"/>
<path d="M233.438 71.25C233.438 67.5417 233.146 64.625 232.562 62.5C231.979 60.375 230.667 58.8125 228.625 57.8125C226.583 56.7708 223.417 56.1042 219.125 55.8125C214.833 55.4792 208.958 55.25 201.5 55.125L166.75 54.625C158.167 54.5 151.271 53.9792 146.062 53.0625C140.854 52.1458 136.917 50.7083 134.25 48.75C131.583 46.75 129.792 44.0833 128.875 40.75C128 37.4167 127.562 33.25 127.562 28.25C127.562 22.7917 128.167 18.2917 129.375 14.75C130.625 11.2083 132.854 8.4375 136.062 6.4375C139.312 4.4375 143.896 3.04167 149.812 2.25C155.729 1.41667 163.375 1 172.75 1H199.5C208 1 215.083 1.27083 220.75 1.8125C226.417 2.35417 230.917 3.60417 234.25 5.5625C237.583 7.52083 239.958 10.5625 241.375 14.6875C242.833 18.8125 243.562 24.4792 243.562 31.6875H231.562C231.562 26.1042 231.021 21.8958 229.938 19.0625C228.896 16.1875 227.146 14.2292 224.688 13.1875C222.271 12.1458 219 11.5833 214.875 11.5C210.75 11.4167 205.625 11.375 199.5 11.375H173.375C165.917 11.375 159.938 11.5208 155.438 11.8125C150.979 12.1042 147.604 12.7708 145.312 13.8125C143.021 14.8542 141.479 16.5208 140.688 18.8125C139.938 21.1042 139.562 24.25 139.562 28.25C139.562 31.625 139.833 34.3333 140.375 36.375C140.917 38.4167 142.125 39.9792 144 41.0625C145.917 42.1042 148.854 42.8333 152.812 43.25C156.771 43.625 162.167 43.8542 169 43.9375L206.25 44.4375C215 44.5625 221.979 45.0833 227.188 46C232.438 46.875 236.354 48.3125 238.938 50.3125C241.562 52.3125 243.292 55.0208 244.125 58.4375C245 61.8125 245.438 66.0833 245.438 71.25C245.438 76.875 244.896 81.6042 243.812 85.4375C242.771 89.2292 240.729 92.2708 237.688 94.5625C234.646 96.8542 230.25 98.5 224.5 99.5C218.75 100.5 211.188 101 201.812 101H172.562C164.021 101 156.854 100.625 151.062 99.875C145.271 99.125 140.646 97.625 137.188 95.375C133.771 93.0833 131.312 89.6875 129.812 85.1875C128.312 80.6875 127.562 74.6875 127.562 67.1875H139.562C139.562 73.0625 140.042 77.6042 141 80.8125C141.958 84.0208 143.625 86.3333 146 87.75C148.417 89.125 151.771 89.9583 156.062 90.25C160.396 90.5 165.896 90.625 172.562 90.625H201.188C208.646 90.625 214.542 90.3958 218.875 89.9375C223.208 89.4375 226.417 88.5208 228.5 87.1875C230.583 85.8125 231.917 83.8542 232.5 81.3125C233.125 78.7708 233.438 75.4167 233.438 71.25Z"/>
<path d="M263.5 75.8125C263.5 70.2292 264.021 65.5417 265.062 61.75C266.104 57.9583 268.104 54.9167 271.062 52.625C274.021 50.3333 278.312 48.6875 283.938 47.6875C289.604 46.6458 297.021 46.1042 306.188 46.0625H328.562C335.062 46.0625 340.125 45.8542 343.75 45.4375C347.417 44.9792 350.083 44.1458 351.75 42.9375C353.417 41.6875 354.438 39.8958 354.812 37.5625C355.229 35.1875 355.438 32.0833 355.438 28.25C355.438 24.25 355.062 21.1042 354.312 18.8125C353.562 16.5208 352.083 14.8542 349.875 13.8125C347.667 12.7708 344.396 12.1042 340.062 11.8125C335.771 11.5208 330.062 11.375 322.938 11.375H309.312C301.854 11.375 295.875 11.5208 291.375 11.8125C286.917 12.1042 283.542 12.7708 281.25 13.8125C278.958 14.8542 277.417 16.5208 276.625 18.8125C275.875 21.1042 275.5 24.25 275.5 28.25H263.5C263.5 22.7917 264.104 18.2917 265.312 14.75C266.562 11.2083 268.792 8.4375 272 6.4375C275.25 4.4375 279.833 3.04167 285.75 2.25C291.667 1.41667 299.312 1 308.688 1H323.562C332.604 1 340 1.41667 345.75 2.25C351.5 3.04167 355.938 4.4375 359.062 6.4375C362.229 8.4375 364.417 11.2083 365.625 14.75C366.833 18.2917 367.438 22.7917 367.438 28.25C367.438 35.25 366.5 40.7917 364.625 44.875C362.792 48.9167 359.542 51.8125 354.875 53.5625C350.25 55.2708 343.708 56.125 335.25 56.125H307.75C300.292 56.125 294.396 56.375 290.062 56.875C285.729 57.375 282.521 58.3333 280.438 59.75C278.354 61.125 277 63.1042 276.375 65.6875C275.792 68.2708 275.5 71.6458 275.5 75.8125V89H363.625V99H263.5V75.8125Z"/>
<path d="M14.9023 141V116.812H1.40234V114H31.7773V116.812H18.2773V141H14.9023Z"/>
<path d="M36.8047 141V114H63.3125V116.812H40.1797V125.812H62.3457V128.625H40.1797V138.188H63.8047V141H36.8047Z"/>
<path d="M68.3047 141V114H71.6797V125.812H76.1621L93.6172 114H98.6797L79.5547 127.219L99.2422 141H94.1797L76.1797 128.625H71.6797V141H68.3047Z"/>
<path d="M103.742 141V114H107.258L134.381 136.834H134.416V114H137.791V141H134.275L107.152 117.973H107.117V141H103.742Z"/>
<path d="M156.494 141.562C153.857 141.562 151.689 141.381 149.99 141.018C148.291 140.666 146.961 140.01 146 139.049C145.051 138.088 144.383 136.705 143.996 134.9C143.621 133.096 143.434 130.746 143.434 127.852V127.148C143.434 124.758 143.551 122.754 143.785 121.137C144.02 119.508 144.424 118.184 144.998 117.164C145.572 116.145 146.352 115.365 147.336 114.826C148.332 114.287 149.58 113.924 151.08 113.736C152.58 113.537 154.385 113.438 156.494 113.438H163.578C165.688 113.438 167.492 113.537 168.992 113.736C170.492 113.924 171.734 114.287 172.719 114.826C173.715 115.365 174.5 116.145 175.074 117.164C175.648 118.184 176.053 119.508 176.287 121.137C176.521 122.754 176.639 124.758 176.639 127.148V127.852C176.639 130.746 176.445 133.096 176.059 134.9C175.684 136.705 175.016 138.088 174.055 139.049C173.105 140.01 171.781 140.666 170.082 141.018C168.383 141.381 166.215 141.562 163.578 141.562H156.494ZM156.494 138.645H163.578C165.254 138.645 166.666 138.586 167.814 138.469C168.963 138.352 169.895 138.1 170.609 137.713C171.336 137.326 171.887 136.74 172.262 135.955C172.648 135.17 172.912 134.121 173.053 132.809C173.193 131.496 173.264 129.844 173.264 127.852V127.148C173.264 125.086 173.193 123.387 173.053 122.051C172.912 120.715 172.648 119.66 172.262 118.887C171.887 118.113 171.336 117.551 170.609 117.199C169.895 116.836 168.963 116.607 167.814 116.514C166.666 116.408 165.254 116.355 163.578 116.355H156.494C154.818 116.355 153.406 116.408 152.258 116.514C151.109 116.607 150.172 116.836 149.445 117.199C148.73 117.551 148.18 118.113 147.793 118.887C147.418 119.66 147.16 120.715 147.02 122.051C146.879 123.387 146.809 125.086 146.809 127.148V127.852C146.809 129.844 146.879 131.496 147.02 132.809C147.16 134.121 147.418 135.17 147.793 135.955C148.18 136.74 148.73 137.326 149.445 137.713C150.172 138.1 151.109 138.352 152.258 138.469C153.406 138.586 154.818 138.645 156.494 138.645Z"/>
<path d="M182.281 141V114H185.656V138.188H207.031V141H182.281Z"/>
<path d="M223.467 141.562C220.83 141.562 218.662 141.381 216.963 141.018C215.264 140.666 213.934 140.01 212.973 139.049C212.023 138.088 211.355 136.705 210.969 134.9C210.594 133.096 210.406 130.746 210.406 127.852V127.148C210.406 124.758 210.523 122.754 210.758 121.137C210.992 119.508 211.396 118.184 211.971 117.164C212.545 116.145 213.324 115.365 214.309 114.826C215.305 114.287 216.553 113.924 218.053 113.736C219.553 113.537 221.357 113.438 223.467 113.438H230.551C232.66 113.438 234.465 113.537 235.965 113.736C237.465 113.924 238.707 114.287 239.691 114.826C240.688 115.365 241.473 116.145 242.047 117.164C242.621 118.184 243.025 119.508 243.26 121.137C243.494 122.754 243.611 124.758 243.611 127.148V127.852C243.611 130.746 243.418 133.096 243.031 134.9C242.656 136.705 241.988 138.088 241.027 139.049C240.078 140.01 238.754 140.666 237.055 141.018C235.355 141.381 233.188 141.562 230.551 141.562H223.467ZM223.467 138.645H230.551C232.227 138.645 233.639 138.586 234.787 138.469C235.936 138.352 236.867 138.1 237.582 137.713C238.309 137.326 238.859 136.74 239.234 135.955C239.621 135.17 239.885 134.121 240.025 132.809C240.166 131.496 240.236 129.844 240.236 127.852V127.148C240.236 125.086 240.166 123.387 240.025 122.051C239.885 120.715 239.621 119.66 239.234 118.887C238.859 118.113 238.309 117.551 237.582 117.199C236.867 116.836 235.936 116.607 234.787 116.514C233.639 116.408 232.227 116.355 230.551 116.355H223.467C221.791 116.355 220.379 116.408 219.23 116.514C218.082 116.607 217.145 116.836 216.418 117.199C215.703 117.551 215.152 118.113 214.766 118.887C214.391 119.66 214.133 120.715 213.992 122.051C213.852 123.387 213.781 125.086 213.781 127.148V127.852C213.781 129.844 213.852 131.496 213.992 132.809C214.133 134.121 214.391 135.17 214.766 135.955C215.152 136.74 215.703 137.326 216.418 137.713C217.145 138.1 218.082 138.352 219.23 138.469C220.379 138.586 221.791 138.645 223.467 138.645Z"/>
<path d="M248.129 127.852V127.148C248.129 124.758 248.246 122.754 248.48 121.137C248.715 119.508 249.119 118.184 249.693 117.164C250.268 116.145 251.047 115.365 252.031 114.826C253.027 114.287 254.275 113.924 255.775 113.736C257.275 113.537 259.08 113.438 261.189 113.438H267.799C270.564 113.438 272.809 113.543 274.531 113.754C276.266 113.965 277.596 114.369 278.521 114.967C279.459 115.564 280.104 116.438 280.455 117.586C280.807 118.723 280.982 120.217 280.982 122.068H277.607C277.607 120.674 277.484 119.59 277.238 118.816C276.992 118.031 276.529 117.469 275.85 117.129C275.17 116.777 274.18 116.561 272.879 116.479C271.59 116.396 269.896 116.355 267.799 116.355H261.189C259.514 116.355 258.102 116.408 256.953 116.514C255.805 116.607 254.867 116.836 254.141 117.199C253.426 117.551 252.875 118.113 252.488 118.887C252.113 119.66 251.855 120.715 251.715 122.051C251.574 123.387 251.504 125.086 251.504 127.148V127.852C251.504 129.844 251.574 131.496 251.715 132.809C251.855 134.121 252.113 135.17 252.488 135.955C252.875 136.74 253.426 137.326 254.141 137.713C254.867 138.1 255.805 138.352 256.953 138.469C258.102 138.586 259.514 138.645 261.189 138.645H268.977C270.91 138.645 272.469 138.568 273.652 138.416C274.836 138.252 275.732 137.912 276.342 137.396C276.963 136.869 277.379 136.072 277.59 135.006C277.801 133.928 277.906 132.475 277.906 130.646V129.609H264.986V126.797H281.281V130.646C281.281 132.932 281.088 134.789 280.701 136.219C280.314 137.648 279.658 138.756 278.732 139.541C277.818 140.314 276.564 140.842 274.971 141.123C273.389 141.416 271.391 141.562 268.977 141.562H261.189C258.553 141.562 256.385 141.381 254.686 141.018C252.986 140.666 251.656 140.01 250.695 139.049C249.746 138.088 249.078 136.705 248.691 134.9C248.316 133.096 248.129 130.746 248.129 127.852Z"/>
<path d="M287.539 141V114H290.914V141H287.539Z"/>
<path d="M297.664 141V114H324.172V116.812H301.039V125.812H323.205V128.625H301.039V138.188H324.664V141H297.664Z"/>
<path d="M357.904 133.195C357.904 132.152 357.822 131.332 357.658 130.734C357.494 130.137 357.125 129.697 356.551 129.416C355.977 129.123 355.086 128.936 353.879 128.854C352.672 128.76 351.02 128.695 348.922 128.66L339.148 128.52C336.734 128.484 334.795 128.338 333.33 128.08C331.865 127.822 330.758 127.418 330.008 126.867C329.258 126.305 328.754 125.555 328.496 124.617C328.25 123.68 328.127 122.508 328.127 121.102C328.127 119.566 328.297 118.301 328.637 117.305C328.988 116.309 329.615 115.529 330.518 114.967C331.432 114.404 332.721 114.012 334.385 113.789C336.049 113.555 338.199 113.438 340.836 113.438H348.359C350.75 113.438 352.742 113.514 354.336 113.666C355.93 113.818 357.195 114.17 358.133 114.721C359.07 115.271 359.738 116.127 360.137 117.287C360.547 118.447 360.752 120.041 360.752 122.068H357.377C357.377 120.498 357.225 119.314 356.92 118.518C356.627 117.709 356.135 117.158 355.443 116.865C354.764 116.572 353.844 116.414 352.684 116.391C351.523 116.367 350.082 116.355 348.359 116.355H341.012C338.914 116.355 337.232 116.396 335.967 116.479C334.713 116.561 333.764 116.748 333.119 117.041C332.475 117.334 332.041 117.803 331.818 118.447C331.607 119.092 331.502 119.977 331.502 121.102C331.502 122.051 331.578 122.812 331.73 123.387C331.883 123.961 332.223 124.4 332.75 124.705C333.289 124.998 334.115 125.203 335.229 125.32C336.342 125.426 337.859 125.49 339.781 125.514L350.258 125.654C352.719 125.689 354.682 125.836 356.146 126.094C357.623 126.34 358.725 126.744 359.451 127.307C360.189 127.869 360.676 128.631 360.91 129.592C361.156 130.541 361.279 131.742 361.279 133.195C361.279 134.777 361.127 136.107 360.822 137.186C360.529 138.252 359.955 139.107 359.1 139.752C358.244 140.396 357.008 140.859 355.391 141.141C353.773 141.422 351.646 141.562 349.01 141.562H340.783C338.381 141.562 336.365 141.457 334.736 141.246C333.107 141.035 331.807 140.613 330.834 139.98C329.873 139.336 329.182 138.381 328.76 137.115C328.338 135.85 328.127 134.162 328.127 132.053H331.502C331.502 133.705 331.637 134.982 331.906 135.885C332.176 136.787 332.645 137.438 333.312 137.836C333.992 138.223 334.936 138.457 336.143 138.539C337.361 138.609 338.908 138.645 340.783 138.645H348.834C350.932 138.645 352.59 138.58 353.809 138.451C355.027 138.311 355.93 138.053 356.516 137.678C357.102 137.291 357.477 136.74 357.641 136.025C357.816 135.311 357.904 134.367 357.904 133.195Z"/>
</mask>
<path d="M1 3H65.25C74.625 3 82.1667 3.41667 87.875 4.25C93.625 5.08333 97.9792 6.52083 100.938 8.5625C103.896 10.6042 105.896 13.3958 106.938 16.9375C107.979 20.4792 108.5 24.9583 108.5 30.375V32.875C108.5 37.875 107.896 42.1875 106.688 45.8125C105.521 49.3958 103.25 52.3125 99.875 54.5625C96.5 56.7708 91.5 58.3333 84.875 59.25L105.75 99H93.75L73.3125 60.125C72.4792 60.1667 71.6042 60.1875 70.6875 60.1875C69.8125 60.1875 68.8958 60.1875 67.9375 60.1875H13V99H1V3ZM13 49.8125H66.0625C73.1875 49.8125 78.7917 49.5833 82.875 49.125C87 48.625 90.0208 47.7708 91.9375 46.5625C93.8958 45.3542 95.1458 43.6458 95.6875 41.4375C96.2292 39.2292 96.5 36.375 96.5 32.875V30.375C96.5 26.4167 96.125 23.2917 95.375 21C94.625 18.7083 93.125 17.0208 90.875 15.9375C88.625 14.8542 85.2708 14.1667 80.8125 13.875C76.3542 13.5417 70.3958 13.375 62.9375 13.375H13V49.8125Z" fill="white"/>
<path d="M233.438 71.25C233.438 67.5417 233.146 64.625 232.562 62.5C231.979 60.375 230.667 58.8125 228.625 57.8125C226.583 56.7708 223.417 56.1042 219.125 55.8125C214.833 55.4792 208.958 55.25 201.5 55.125L166.75 54.625C158.167 54.5 151.271 53.9792 146.062 53.0625C140.854 52.1458 136.917 50.7083 134.25 48.75C131.583 46.75 129.792 44.0833 128.875 40.75C128 37.4167 127.562 33.25 127.562 28.25C127.562 22.7917 128.167 18.2917 129.375 14.75C130.625 11.2083 132.854 8.4375 136.062 6.4375C139.312 4.4375 143.896 3.04167 149.812 2.25C155.729 1.41667 163.375 1 172.75 1H199.5C208 1 215.083 1.27083 220.75 1.8125C226.417 2.35417 230.917 3.60417 234.25 5.5625C237.583 7.52083 239.958 10.5625 241.375 14.6875C242.833 18.8125 243.562 24.4792 243.562 31.6875H231.562C231.562 26.1042 231.021 21.8958 229.938 19.0625C228.896 16.1875 227.146 14.2292 224.688 13.1875C222.271 12.1458 219 11.5833 214.875 11.5C210.75 11.4167 205.625 11.375 199.5 11.375H173.375C165.917 11.375 159.938 11.5208 155.438 11.8125C150.979 12.1042 147.604 12.7708 145.312 13.8125C143.021 14.8542 141.479 16.5208 140.688 18.8125C139.938 21.1042 139.562 24.25 139.562 28.25C139.562 31.625 139.833 34.3333 140.375 36.375C140.917 38.4167 142.125 39.9792 144 41.0625C145.917 42.1042 148.854 42.8333 152.812 43.25C156.771 43.625 162.167 43.8542 169 43.9375L206.25 44.4375C215 44.5625 221.979 45.0833 227.188 46C232.438 46.875 236.354 48.3125 238.938 50.3125C241.562 52.3125 243.292 55.0208 244.125 58.4375C245 61.8125 245.438 66.0833 245.438 71.25C245.438 76.875 244.896 81.6042 243.812 85.4375C242.771 89.2292 240.729 92.2708 237.688 94.5625C234.646 96.8542 230.25 98.5 224.5 99.5C218.75 100.5 211.188 101 201.812 101H172.562C164.021 101 156.854 100.625 151.062 99.875C145.271 99.125 140.646 97.625 137.188 95.375C133.771 93.0833 131.312 89.6875 129.812 85.1875C128.312 80.6875 127.562 74.6875 127.562 67.1875H139.562C139.562 73.0625 140.042 77.6042 141 80.8125C141.958 84.0208 143.625 86.3333 146 87.75C148.417 89.125 151.771 89.9583 156.062 90.25C160.396 90.5 165.896 90.625 172.562 90.625H201.188C208.646 90.625 214.542 90.3958 218.875 89.9375C223.208 89.4375 226.417 88.5208 228.5 87.1875C230.583 85.8125 231.917 83.8542 232.5 81.3125C233.125 78.7708 233.438 75.4167 233.438 71.25Z" fill="white"/>
<path d="M263.5 75.8125C263.5 70.2292 264.021 65.5417 265.062 61.75C266.104 57.9583 268.104 54.9167 271.062 52.625C274.021 50.3333 278.312 48.6875 283.938 47.6875C289.604 46.6458 297.021 46.1042 306.188 46.0625H328.562C335.062 46.0625 340.125 45.8542 343.75 45.4375C347.417 44.9792 350.083 44.1458 351.75 42.9375C353.417 41.6875 354.438 39.8958 354.812 37.5625C355.229 35.1875 355.438 32.0833 355.438 28.25C355.438 24.25 355.062 21.1042 354.312 18.8125C353.562 16.5208 352.083 14.8542 349.875 13.8125C347.667 12.7708 344.396 12.1042 340.062 11.8125C335.771 11.5208 330.062 11.375 322.938 11.375H309.312C301.854 11.375 295.875 11.5208 291.375 11.8125C286.917 12.1042 283.542 12.7708 281.25 13.8125C278.958 14.8542 277.417 16.5208 276.625 18.8125C275.875 21.1042 275.5 24.25 275.5 28.25H263.5C263.5 22.7917 264.104 18.2917 265.312 14.75C266.562 11.2083 268.792 8.4375 272 6.4375C275.25 4.4375 279.833 3.04167 285.75 2.25C291.667 1.41667 299.312 1 308.688 1H323.562C332.604 1 340 1.41667 345.75 2.25C351.5 3.04167 355.938 4.4375 359.062 6.4375C362.229 8.4375 364.417 11.2083 365.625 14.75C366.833 18.2917 367.438 22.7917 367.438 28.25C367.438 35.25 366.5 40.7917 364.625 44.875C362.792 48.9167 359.542 51.8125 354.875 53.5625C350.25 55.2708 343.708 56.125 335.25 56.125H307.75C300.292 56.125 294.396 56.375 290.062 56.875C285.729 57.375 282.521 58.3333 280.438 59.75C278.354 61.125 277 63.1042 276.375 65.6875C275.792 68.2708 275.5 71.6458 275.5 75.8125V89H363.625V99H263.5V75.8125Z" fill="white"/>
<path d="M14.9023 141V116.812H1.40234V114H31.7773V116.812H18.2773V141H14.9023Z" fill="white"/>
<path d="M36.8047 141V114H63.3125V116.812H40.1797V125.812H62.3457V128.625H40.1797V138.188H63.8047V141H36.8047Z" fill="white"/>
<path d="M68.3047 141V114H71.6797V125.812H76.1621L93.6172 114H98.6797L79.5547 127.219L99.2422 141H94.1797L76.1797 128.625H71.6797V141H68.3047Z" fill="white"/>
<path d="M103.742 141V114H107.258L134.381 136.834H134.416V114H137.791V141H134.275L107.152 117.973H107.117V141H103.742Z" fill="white"/>
<path d="M156.494 141.562C153.857 141.562 151.689 141.381 149.99 141.018C148.291 140.666 146.961 140.01 146 139.049C145.051 138.088 144.383 136.705 143.996 134.9C143.621 133.096 143.434 130.746 143.434 127.852V127.148C143.434 124.758 143.551 122.754 143.785 121.137C144.02 119.508 144.424 118.184 144.998 117.164C145.572 116.145 146.352 115.365 147.336 114.826C148.332 114.287 149.58 113.924 151.08 113.736C152.58 113.537 154.385 113.438 156.494 113.438H163.578C165.688 113.438 167.492 113.537 168.992 113.736C170.492 113.924 171.734 114.287 172.719 114.826C173.715 115.365 174.5 116.145 175.074 117.164C175.648 118.184 176.053 119.508 176.287 121.137C176.521 122.754 176.639 124.758 176.639 127.148V127.852C176.639 130.746 176.445 133.096 176.059 134.9C175.684 136.705 175.016 138.088 174.055 139.049C173.105 140.01 171.781 140.666 170.082 141.018C168.383 141.381 166.215 141.562 163.578 141.562H156.494ZM156.494 138.645H163.578C165.254 138.645 166.666 138.586 167.814 138.469C168.963 138.352 169.895 138.1 170.609 137.713C171.336 137.326 171.887 136.74 172.262 135.955C172.648 135.17 172.912 134.121 173.053 132.809C173.193 131.496 173.264 129.844 173.264 127.852V127.148C173.264 125.086 173.193 123.387 173.053 122.051C172.912 120.715 172.648 119.66 172.262 118.887C171.887 118.113 171.336 117.551 170.609 117.199C169.895 116.836 168.963 116.607 167.814 116.514C166.666 116.408 165.254 116.355 163.578 116.355H156.494C154.818 116.355 153.406 116.408 152.258 116.514C151.109 116.607 150.172 116.836 149.445 117.199C148.73 117.551 148.18 118.113 147.793 118.887C147.418 119.66 147.16 120.715 147.02 122.051C146.879 123.387 146.809 125.086 146.809 127.148V127.852C146.809 129.844 146.879 131.496 147.02 132.809C147.16 134.121 147.418 135.17 147.793 135.955C148.18 136.74 148.73 137.326 149.445 137.713C150.172 138.1 151.109 138.352 152.258 138.469C153.406 138.586 154.818 138.645 156.494 138.645Z" fill="white"/>
<path d="M182.281 141V114H185.656V138.188H207.031V141H182.281Z" fill="white"/>
<path d="M223.467 141.562C220.83 141.562 218.662 141.381 216.963 141.018C215.264 140.666 213.934 140.01 212.973 139.049C212.023 138.088 211.355 136.705 210.969 134.9C210.594 133.096 210.406 130.746 210.406 127.852V127.148C210.406 124.758 210.523 122.754 210.758 121.137C210.992 119.508 211.396 118.184 211.971 117.164C212.545 116.145 213.324 115.365 214.309 114.826C215.305 114.287 216.553 113.924 218.053 113.736C219.553 113.537 221.357 113.438 223.467 113.438H230.551C232.66 113.438 234.465 113.537 235.965 113.736C237.465 113.924 238.707 114.287 239.691 114.826C240.688 115.365 241.473 116.145 242.047 117.164C242.621 118.184 243.025 119.508 243.26 121.137C243.494 122.754 243.611 124.758 243.611 127.148V127.852C243.611 130.746 243.418 133.096 243.031 134.9C242.656 136.705 241.988 138.088 241.027 139.049C240.078 140.01 238.754 140.666 237.055 141.018C235.355 141.381 233.188 141.562 230.551 141.562H223.467ZM223.467 138.645H230.551C232.227 138.645 233.639 138.586 234.787 138.469C235.936 138.352 236.867 138.1 237.582 137.713C238.309 137.326 238.859 136.74 239.234 135.955C239.621 135.17 239.885 134.121 240.025 132.809C240.166 131.496 240.236 129.844 240.236 127.852V127.148C240.236 125.086 240.166 123.387 240.025 122.051C239.885 120.715 239.621 119.66 239.234 118.887C238.859 118.113 238.309 117.551 237.582 117.199C236.867 116.836 235.936 116.607 234.787 116.514C233.639 116.408 232.227 116.355 230.551 116.355H223.467C221.791 116.355 220.379 116.408 219.23 116.514C218.082 116.607 217.145 116.836 216.418 117.199C215.703 117.551 215.152 118.113 214.766 118.887C214.391 119.66 214.133 120.715 213.992 122.051C213.852 123.387 213.781 125.086 213.781 127.148V127.852C213.781 129.844 213.852 131.496 213.992 132.809C214.133 134.121 214.391 135.17 214.766 135.955C215.152 136.74 215.703 137.326 216.418 137.713C217.145 138.1 218.082 138.352 219.23 138.469C220.379 138.586 221.791 138.645 223.467 138.645Z" fill="white"/>
<path d="M248.129 127.852V127.148C248.129 124.758 248.246 122.754 248.48 121.137C248.715 119.508 249.119 118.184 249.693 117.164C250.268 116.145 251.047 115.365 252.031 114.826C253.027 114.287 254.275 113.924 255.775 113.736C257.275 113.537 259.08 113.438 261.189 113.438H267.799C270.564 113.438 272.809 113.543 274.531 113.754C276.266 113.965 277.596 114.369 278.521 114.967C279.459 115.564 280.104 116.438 280.455 117.586C280.807 118.723 280.982 120.217 280.982 122.068H277.607C277.607 120.674 277.484 119.59 277.238 118.816C276.992 118.031 276.529 117.469 275.85 117.129C275.17 116.777 274.18 116.561 272.879 116.479C271.59 116.396 269.896 116.355 267.799 116.355H261.189C259.514 116.355 258.102 116.408 256.953 116.514C255.805 116.607 254.867 116.836 254.141 117.199C253.426 117.551 252.875 118.113 252.488 118.887C252.113 119.66 251.855 120.715 251.715 122.051C251.574 123.387 251.504 125.086 251.504 127.148V127.852C251.504 129.844 251.574 131.496 251.715 132.809C251.855 134.121 252.113 135.17 252.488 135.955C252.875 136.74 253.426 137.326 254.141 137.713C254.867 138.1 255.805 138.352 256.953 138.469C258.102 138.586 259.514 138.645 261.189 138.645H268.977C270.91 138.645 272.469 138.568 273.652 138.416C274.836 138.252 275.732 137.912 276.342 137.396C276.963 136.869 277.379 136.072 277.59 135.006C277.801 133.928 277.906 132.475 277.906 130.646V129.609H264.986V126.797H281.281V130.646C281.281 132.932 281.088 134.789 280.701 136.219C280.314 137.648 279.658 138.756 278.732 139.541C277.818 140.314 276.564 140.842 274.971 141.123C273.389 141.416 271.391 141.562 268.977 141.562H261.189C258.553 141.562 256.385 141.381 254.686 141.018C252.986 140.666 251.656 140.01 250.695 139.049C249.746 138.088 249.078 136.705 248.691 134.9C248.316 133.096 248.129 130.746 248.129 127.852Z" fill="white"/>
<path d="M287.539 141V114H290.914V141H287.539Z" fill="white"/>
<path d="M297.664 141V114H324.172V116.812H301.039V125.812H323.205V128.625H301.039V138.188H324.664V141H297.664Z" fill="white"/>
<path d="M357.904 133.195C357.904 132.152 357.822 131.332 357.658 130.734C357.494 130.137 357.125 129.697 356.551 129.416C355.977 129.123 355.086 128.936 353.879 128.854C352.672 128.76 351.02 128.695 348.922 128.66L339.148 128.52C336.734 128.484 334.795 128.338 333.33 128.08C331.865 127.822 330.758 127.418 330.008 126.867C329.258 126.305 328.754 125.555 328.496 124.617C328.25 123.68 328.127 122.508 328.127 121.102C328.127 119.566 328.297 118.301 328.637 117.305C328.988 116.309 329.615 115.529 330.518 114.967C331.432 114.404 332.721 114.012 334.385 113.789C336.049 113.555 338.199 113.438 340.836 113.438H348.359C350.75 113.438 352.742 113.514 354.336 113.666C355.93 113.818 357.195 114.17 358.133 114.721C359.07 115.271 359.738 116.127 360.137 117.287C360.547 118.447 360.752 120.041 360.752 122.068H357.377C357.377 120.498 357.225 119.314 356.92 118.518C356.627 117.709 356.135 117.158 355.443 116.865C354.764 116.572 353.844 116.414 352.684 116.391C351.523 116.367 350.082 116.355 348.359 116.355H341.012C338.914 116.355 337.232 116.396 335.967 116.479C334.713 116.561 333.764 116.748 333.119 117.041C332.475 117.334 332.041 117.803 331.818 118.447C331.607 119.092 331.502 119.977 331.502 121.102C331.502 122.051 331.578 122.812 331.73 123.387C331.883 123.961 332.223 124.4 332.75 124.705C333.289 124.998 334.115 125.203 335.229 125.32C336.342 125.426 337.859 125.49 339.781 125.514L350.258 125.654C352.719 125.689 354.682 125.836 356.146 126.094C357.623 126.34 358.725 126.744 359.451 127.307C360.189 127.869 360.676 128.631 360.91 129.592C361.156 130.541 361.279 131.742 361.279 133.195C361.279 134.777 361.127 136.107 360.822 137.186C360.529 138.252 359.955 139.107 359.1 139.752C358.244 140.396 357.008 140.859 355.391 141.141C353.773 141.422 351.646 141.562 349.01 141.562H340.783C338.381 141.562 336.365 141.457 334.736 141.246C333.107 141.035 331.807 140.613 330.834 139.98C329.873 139.336 329.182 138.381 328.76 137.115C328.338 135.85 328.127 134.162 328.127 132.053H331.502C331.502 133.705 331.637 134.982 331.906 135.885C332.176 136.787 332.645 137.438 333.312 137.836C333.992 138.223 334.936 138.457 336.143 138.539C337.361 138.609 338.908 138.645 340.783 138.645H348.834C350.932 138.645 352.59 138.58 353.809 138.451C355.027 138.311 355.93 138.053 356.516 137.678C357.102 137.291 357.477 136.74 357.641 136.025C357.816 135.311 357.904 134.367 357.904 133.195Z" fill="white"/>
<path d="M1 3H65.25C74.625 3 82.1667 3.41667 87.875 4.25C93.625 5.08333 97.9792 6.52083 100.938 8.5625C103.896 10.6042 105.896 13.3958 106.938 16.9375C107.979 20.4792 108.5 24.9583 108.5 30.375V32.875C108.5 37.875 107.896 42.1875 106.688 45.8125C105.521 49.3958 103.25 52.3125 99.875 54.5625C96.5 56.7708 91.5 58.3333 84.875 59.25L105.75 99H93.75L73.3125 60.125C72.4792 60.1667 71.6042 60.1875 70.6875 60.1875C69.8125 60.1875 68.8958 60.1875 67.9375 60.1875H13V99H1V3ZM13 49.8125H66.0625C73.1875 49.8125 78.7917 49.5833 82.875 49.125C87 48.625 90.0208 47.7708 91.9375 46.5625C93.8958 45.3542 95.1458 43.6458 95.6875 41.4375C96.2292 39.2292 96.5 36.375 96.5 32.875V30.375C96.5 26.4167 96.125 23.2917 95.375 21C94.625 18.7083 93.125 17.0208 90.875 15.9375C88.625 14.8542 85.2708 14.1667 80.8125 13.875C76.3542 13.5417 70.3958 13.375 62.9375 13.375H13V49.8125Z" stroke="black" stroke-width="2" mask="url(#path-1-outside-1_34_87)"/>
<path d="M233.438 71.25C233.438 67.5417 233.146 64.625 232.562 62.5C231.979 60.375 230.667 58.8125 228.625 57.8125C226.583 56.7708 223.417 56.1042 219.125 55.8125C214.833 55.4792 208.958 55.25 201.5 55.125L166.75 54.625C158.167 54.5 151.271 53.9792 146.062 53.0625C140.854 52.1458 136.917 50.7083 134.25 48.75C131.583 46.75 129.792 44.0833 128.875 40.75C128 37.4167 127.562 33.25 127.562 28.25C127.562 22.7917 128.167 18.2917 129.375 14.75C130.625 11.2083 132.854 8.4375 136.062 6.4375C139.312 4.4375 143.896 3.04167 149.812 2.25C155.729 1.41667 163.375 1 172.75 1H199.5C208 1 215.083 1.27083 220.75 1.8125C226.417 2.35417 230.917 3.60417 234.25 5.5625C237.583 7.52083 239.958 10.5625 241.375 14.6875C242.833 18.8125 243.562 24.4792 243.562 31.6875H231.562C231.562 26.1042 231.021 21.8958 229.938 19.0625C228.896 16.1875 227.146 14.2292 224.688 13.1875C222.271 12.1458 219 11.5833 214.875 11.5C210.75 11.4167 205.625 11.375 199.5 11.375H173.375C165.917 11.375 159.938 11.5208 155.438 11.8125C150.979 12.1042 147.604 12.7708 145.312 13.8125C143.021 14.8542 141.479 16.5208 140.688 18.8125C139.938 21.1042 139.562 24.25 139.562 28.25C139.562 31.625 139.833 34.3333 140.375 36.375C140.917 38.4167 142.125 39.9792 144 41.0625C145.917 42.1042 148.854 42.8333 152.812 43.25C156.771 43.625 162.167 43.8542 169 43.9375L206.25 44.4375C215 44.5625 221.979 45.0833 227.188 46C232.438 46.875 236.354 48.3125 238.938 50.3125C241.562 52.3125 243.292 55.0208 244.125 58.4375C245 61.8125 245.438 66.0833 245.438 71.25C245.438 76.875 244.896 81.6042 243.812 85.4375C242.771 89.2292 240.729 92.2708 237.688 94.5625C234.646 96.8542 230.25 98.5 224.5 99.5C218.75 100.5 211.188 101 201.812 101H172.562C164.021 101 156.854 100.625 151.062 99.875C145.271 99.125 140.646 97.625 137.188 95.375C133.771 93.0833 131.312 89.6875 129.812 85.1875C128.312 80.6875 127.562 74.6875 127.562 67.1875H139.562C139.562 73.0625 140.042 77.6042 141 80.8125C141.958 84.0208 143.625 86.3333 146 87.75C148.417 89.125 151.771 89.9583 156.062 90.25C160.396 90.5 165.896 90.625 172.562 90.625H201.188C208.646 90.625 214.542 90.3958 218.875 89.9375C223.208 89.4375 226.417 88.5208 228.5 87.1875C230.583 85.8125 231.917 83.8542 232.5 81.3125C233.125 78.7708 233.438 75.4167 233.438 71.25Z" stroke="black" stroke-width="2" mask="url(#path-1-outside-1_34_87)"/>
<path d="M263.5 75.8125C263.5 70.2292 264.021 65.5417 265.062 61.75C266.104 57.9583 268.104 54.9167 271.062 52.625C274.021 50.3333 278.312 48.6875 283.938 47.6875C289.604 46.6458 297.021 46.1042 306.188 46.0625H328.562C335.062 46.0625 340.125 45.8542 343.75 45.4375C347.417 44.9792 350.083 44.1458 351.75 42.9375C353.417 41.6875 354.438 39.8958 354.812 37.5625C355.229 35.1875 355.438 32.0833 355.438 28.25C355.438 24.25 355.062 21.1042 354.312 18.8125C353.562 16.5208 352.083 14.8542 349.875 13.8125C347.667 12.7708 344.396 12.1042 340.062 11.8125C335.771 11.5208 330.062 11.375 322.938 11.375H309.312C301.854 11.375 295.875 11.5208 291.375 11.8125C286.917 12.1042 283.542 12.7708 281.25 13.8125C278.958 14.8542 277.417 16.5208 276.625 18.8125C275.875 21.1042 275.5 24.25 275.5 28.25H263.5C263.5 22.7917 264.104 18.2917 265.312 14.75C266.562 11.2083 268.792 8.4375 272 6.4375C275.25 4.4375 279.833 3.04167 285.75 2.25C291.667 1.41667 299.312 1 308.688 1H323.562C332.604 1 340 1.41667 345.75 2.25C351.5 3.04167 355.938 4.4375 359.062 6.4375C362.229 8.4375 364.417 11.2083 365.625 14.75C366.833 18.2917 367.438 22.7917 367.438 28.25C367.438 35.25 366.5 40.7917 364.625 44.875C362.792 48.9167 359.542 51.8125 354.875 53.5625C350.25 55.2708 343.708 56.125 335.25 56.125H307.75C300.292 56.125 294.396 56.375 290.062 56.875C285.729 57.375 282.521 58.3333 280.438 59.75C278.354 61.125 277 63.1042 276.375 65.6875C275.792 68.2708 275.5 71.6458 275.5 75.8125V89H363.625V99H263.5V75.8125Z" stroke="black" stroke-width="2" mask="url(#path-1-outside-1_34_87)"/>
<path d="M14.9023 141V116.812H1.40234V114H31.7773V116.812H18.2773V141H14.9023Z" stroke="black" stroke-width="2" mask="url(#path-1-outside-1_34_87)"/>
<path d="M36.8047 141V114H63.3125V116.812H40.1797V125.812H62.3457V128.625H40.1797V138.188H63.8047V141H36.8047Z" stroke="black" stroke-width="2" mask="url(#path-1-outside-1_34_87)"/>
<path d="M68.3047 141V114H71.6797V125.812H76.1621L93.6172 114H98.6797L79.5547 127.219L99.2422 141H94.1797L76.1797 128.625H71.6797V141H68.3047Z" stroke="black" stroke-width="2" mask="url(#path-1-outside-1_34_87)"/>
<path d="M103.742 141V114H107.258L134.381 136.834H134.416V114H137.791V141H134.275L107.152 117.973H107.117V141H103.742Z" stroke="black" stroke-width="2" mask="url(#path-1-outside-1_34_87)"/>
<path d="M156.494 141.562C153.857 141.562 151.689 141.381 149.99 141.018C148.291 140.666 146.961 140.01 146 139.049C145.051 138.088 144.383 136.705 143.996 134.9C143.621 133.096 143.434 130.746 143.434 127.852V127.148C143.434 124.758 143.551 122.754 143.785 121.137C144.02 119.508 144.424 118.184 144.998 117.164C145.572 116.145 146.352 115.365 147.336 114.826C148.332 114.287 149.58 113.924 151.08 113.736C152.58 113.537 154.385 113.438 156.494 113.438H163.578C165.688 113.438 167.492 113.537 168.992 113.736C170.492 113.924 171.734 114.287 172.719 114.826C173.715 115.365 174.5 116.145 175.074 117.164C175.648 118.184 176.053 119.508 176.287 121.137C176.521 122.754 176.639 124.758 176.639 127.148V127.852C176.639 130.746 176.445 133.096 176.059 134.9C175.684 136.705 175.016 138.088 174.055 139.049C173.105 140.01 171.781 140.666 170.082 141.018C168.383 141.381 166.215 141.562 163.578 141.562H156.494ZM156.494 138.645H163.578C165.254 138.645 166.666 138.586 167.814 138.469C168.963 138.352 169.895 138.1 170.609 137.713C171.336 137.326 171.887 136.74 172.262 135.955C172.648 135.17 172.912 134.121 173.053 132.809C173.193 131.496 173.264 129.844 173.264 127.852V127.148C173.264 125.086 173.193 123.387 173.053 122.051C172.912 120.715 172.648 119.66 172.262 118.887C171.887 118.113 171.336 117.551 170.609 117.199C169.895 116.836 168.963 116.607 167.814 116.514C166.666 116.408 165.254 116.355 163.578 116.355H156.494C154.818 116.355 153.406 116.408 152.258 116.514C151.109 116.607 150.172 116.836 149.445 117.199C148.73 117.551 148.18 118.113 147.793 118.887C147.418 119.66 147.16 120.715 147.02 122.051C146.879 123.387 146.809 125.086 146.809 127.148V127.852C146.809 129.844 146.879 131.496 147.02 132.809C147.16 134.121 147.418 135.17 147.793 135.955C148.18 136.74 148.73 137.326 149.445 137.713C150.172 138.1 151.109 138.352 152.258 138.469C153.406 138.586 154.818 138.645 156.494 138.645Z" stroke="black" stroke-width="2" mask="url(#path-1-outside-1_34_87)"/>
<path d="M182.281 141V114H185.656V138.188H207.031V141H182.281Z" stroke="black" stroke-width="2" mask="url(#path-1-outside-1_34_87)"/>
<path d="M223.467 141.562C220.83 141.562 218.662 141.381 216.963 141.018C215.264 140.666 213.934 140.01 212.973 139.049C212.023 138.088 211.355 136.705 210.969 134.9C210.594 133.096 210.406 130.746 210.406 127.852V127.148C210.406 124.758 210.523 122.754 210.758 121.137C210.992 119.508 211.396 118.184 211.971 117.164C212.545 116.145 213.324 115.365 214.309 114.826C215.305 114.287 216.553 113.924 218.053 113.736C219.553 113.537 221.357 113.438 223.467 113.438H230.551C232.66 113.438 234.465 113.537 235.965 113.736C237.465 113.924 238.707 114.287 239.691 114.826C240.688 115.365 241.473 116.145 242.047 117.164C242.621 118.184 243.025 119.508 243.26 121.137C243.494 122.754 243.611 124.758 243.611 127.148V127.852C243.611 130.746 243.418 133.096 243.031 134.9C242.656 136.705 241.988 138.088 241.027 139.049C240.078 140.01 238.754 140.666 237.055 141.018C235.355 141.381 233.188 141.562 230.551 141.562H223.467ZM223.467 138.645H230.551C232.227 138.645 233.639 138.586 234.787 138.469C235.936 138.352 236.867 138.1 237.582 137.713C238.309 137.326 238.859 136.74 239.234 135.955C239.621 135.17 239.885 134.121 240.025 132.809C240.166 131.496 240.236 129.844 240.236 127.852V127.148C240.236 125.086 240.166 123.387 240.025 122.051C239.885 120.715 239.621 119.66 239.234 118.887C238.859 118.113 238.309 117.551 237.582 117.199C236.867 116.836 235.936 116.607 234.787 116.514C233.639 116.408 232.227 116.355 230.551 116.355H223.467C221.791 116.355 220.379 116.408 219.23 116.514C218.082 116.607 217.145 116.836 216.418 117.199C215.703 117.551 215.152 118.113 214.766 118.887C214.391 119.66 214.133 120.715 213.992 122.051C213.852 123.387 213.781 125.086 213.781 127.148V127.852C213.781 129.844 213.852 131.496 213.992 132.809C214.133 134.121 214.391 135.17 214.766 135.955C215.152 136.74 215.703 137.326 216.418 137.713C217.145 138.1 218.082 138.352 219.23 138.469C220.379 138.586 221.791 138.645 223.467 138.645Z" stroke="black" stroke-width="2" mask="url(#path-1-outside-1_34_87)"/>
<path d="M248.129 127.852V127.148C248.129 124.758 248.246 122.754 248.48 121.137C248.715 119.508 249.119 118.184 249.693 117.164C250.268 116.145 251.047 115.365 252.031 114.826C253.027 114.287 254.275 113.924 255.775 113.736C257.275 113.537 259.08 113.438 261.189 113.438H267.799C270.564 113.438 272.809 113.543 274.531 113.754C276.266 113.965 277.596 114.369 278.521 114.967C279.459 115.564 280.104 116.438 280.455 117.586C280.807 118.723 280.982 120.217 280.982 122.068H277.607C277.607 120.674 277.484 119.59 277.238 118.816C276.992 118.031 276.529 117.469 275.85 117.129C275.17 116.777 274.18 116.561 272.879 116.479C271.59 116.396 269.896 116.355 267.799 116.355H261.189C259.514 116.355 258.102 116.408 256.953 116.514C255.805 116.607 254.867 116.836 254.141 117.199C253.426 117.551 252.875 118.113 252.488 118.887C252.113 119.66 251.855 120.715 251.715 122.051C251.574 123.387 251.504 125.086 251.504 127.148V127.852C251.504 129.844 251.574 131.496 251.715 132.809C251.855 134.121 252.113 135.17 252.488 135.955C252.875 136.74 253.426 137.326 254.141 137.713C254.867 138.1 255.805 138.352 256.953 138.469C258.102 138.586 259.514 138.645 261.189 138.645H268.977C270.91 138.645 272.469 138.568 273.652 138.416C274.836 138.252 275.732 137.912 276.342 137.396C276.963 136.869 277.379 136.072 277.59 135.006C277.801 133.928 277.906 132.475 277.906 130.646V129.609H264.986V126.797H281.281V130.646C281.281 132.932 281.088 134.789 280.701 136.219C280.314 137.648 279.658 138.756 278.732 139.541C277.818 140.314 276.564 140.842 274.971 141.123C273.389 141.416 271.391 141.562 268.977 141.562H261.189C258.553 141.562 256.385 141.381 254.686 141.018C252.986 140.666 251.656 140.01 250.695 139.049C249.746 138.088 249.078 136.705 248.691 134.9C248.316 133.096 248.129 130.746 248.129 127.852Z" stroke="black" stroke-width="2" mask="url(#path-1-outside-1_34_87)"/>
<path d="M287.539 141V114H290.914V141H287.539Z" stroke="black" stroke-width="2" mask="url(#path-1-outside-1_34_87)"/>
<path d="M297.664 141V114H324.172V116.812H301.039V125.812H323.205V128.625H301.039V138.188H324.664V141H297.664Z" stroke="black" stroke-width="2" mask="url(#path-1-outside-1_34_87)"/>
<path d="M357.904 133.195C357.904 132.152 357.822 131.332 357.658 130.734C357.494 130.137 357.125 129.697 356.551 129.416C355.977 129.123 355.086 128.936 353.879 128.854C352.672 128.76 351.02 128.695 348.922 128.66L339.148 128.52C336.734 128.484 334.795 128.338 333.33 128.08C331.865 127.822 330.758 127.418 330.008 126.867C329.258 126.305 328.754 125.555 328.496 124.617C328.25 123.68 328.127 122.508 328.127 121.102C328.127 119.566 328.297 118.301 328.637 117.305C328.988 116.309 329.615 115.529 330.518 114.967C331.432 114.404 332.721 114.012 334.385 113.789C336.049 113.555 338.199 113.438 340.836 113.438H348.359C350.75 113.438 352.742 113.514 354.336 113.666C355.93 113.818 357.195 114.17 358.133 114.721C359.07 115.271 359.738 116.127 360.137 117.287C360.547 118.447 360.752 120.041 360.752 122.068H357.377C357.377 120.498 357.225 119.314 356.92 118.518C356.627 117.709 356.135 117.158 355.443 116.865C354.764 116.572 353.844 116.414 352.684 116.391C351.523 116.367 350.082 116.355 348.359 116.355H341.012C338.914 116.355 337.232 116.396 335.967 116.479C334.713 116.561 333.764 116.748 333.119 117.041C332.475 117.334 332.041 117.803 331.818 118.447C331.607 119.092 331.502 119.977 331.502 121.102C331.502 122.051 331.578 122.812 331.73 123.387C331.883 123.961 332.223 124.4 332.75 124.705C333.289 124.998 334.115 125.203 335.229 125.32C336.342 125.426 337.859 125.49 339.781 125.514L350.258 125.654C352.719 125.689 354.682 125.836 356.146 126.094C357.623 126.34 358.725 126.744 359.451 127.307C360.189 127.869 360.676 128.631 360.91 129.592C361.156 130.541 361.279 131.742 361.279 133.195C361.279 134.777 361.127 136.107 360.822 137.186C360.529 138.252 359.955 139.107 359.1 139.752C358.244 140.396 357.008 140.859 355.391 141.141C353.773 141.422 351.646 141.562 349.01 141.562H340.783C338.381 141.562 336.365 141.457 334.736 141.246C333.107 141.035 331.807 140.613 330.834 139.98C329.873 139.336 329.182 138.381 328.76 137.115C328.338 135.85 328.127 134.162 328.127 132.053H331.502C331.502 133.705 331.637 134.982 331.906 135.885C332.176 136.787 332.645 137.438 333.312 137.836C333.992 138.223 334.936 138.457 336.143 138.539C337.361 138.609 338.908 138.645 340.783 138.645H348.834C350.932 138.645 352.59 138.58 353.809 138.451C355.027 138.311 355.93 138.053 356.516 137.678C357.102 137.291 357.477 136.74 357.641 136.025C357.816 135.311 357.904 134.367 357.904 133.195Z" stroke="black" stroke-width="2" mask="url(#path-1-outside-1_34_87)"/>
</svg>
